<?xml version="1.0" encoding="iso-8859-1"?>
<!-- Uploaded to: SVG Repo, www.svgrepo.com, Generator: SVG Repo Mixer Tools -->
<svg version="1.1" id="Layer_1" xmlns="http://www.w3.org/2000/svg" xmlns:xlink="http://www.w3.org/1999/xlink" 
	 viewBox="0 0 442 442" xml:space="preserve">
<g>
	<path style="fill:#4898DA;" d="M193.008,402.001c-2.673,0-5.285-1.339-6.801-3.775l-60.337-97
		c-2.334-3.752-1.184-8.685,2.567-11.019c3.751-2.334,8.685-1.184,11.019,2.567l60.337,97c2.333,3.752,1.184,8.685-2.567,11.019
		C195.911,401.611,194.45,402.001,193.008,402.001z"/>
	<path style="fill:#4898DA;" d="M249.992,402.001c-1.45,0-2.917-0.394-4.236-1.22c-3.746-2.344-4.881-7.28-2.537-11.025l61.338-98
		c2.344-3.745,7.281-4.882,11.025-2.537c3.746,2.344,4.881,7.28,2.537,11.025l-61.338,98
		C255.263,400.67,252.657,402.001,249.992,402.001z"/>
	<path style="fill:#4898DA;" d="M441.998,95.613c0.003,0.257,0.003,0.514,0,0.77C441.933,102.82,436.683,108,430.245,108h-153.48
		c-6.597,0-11.998-5.434-11.745-12.025c0.004-0.096,0.008-0.191,0.012-0.287c0.574-11.72,9.117-21.764,20.608-24.138
		c4.279-0.884,8.479-0.667,12.289,0.39C303.52,53.46,320.69,40,341,40c18.4,0,34.22,11.05,41.19,26.87
		c6.26-4.906,14.125-7.842,22.687-7.87C425.389,58.933,441.788,75.102,441.998,95.613z"/>
	<path style="fill:#4898DA;" d="M206.998,257.613c0.003,0.257,0.003,0.514,0,0.77C206.933,264.82,201.683,270,195.245,270H41.765
		c-6.597,0-11.998-5.434-11.745-12.025c0.004-0.096,0.008-0.191,0.013-0.287c0.574-11.72,9.117-21.764,20.608-24.138
		c4.279-0.884,8.479-0.667,12.289,0.39C68.52,215.46,85.69,202,106,202c18.4,0,34.22,11.05,41.19,26.87
		c6.26-4.906,14.124-7.842,22.687-7.87C190.389,220.933,206.788,237.102,206.998,257.613z"/>
	<path style="fill:#4898DA;" d="M96,348h-8c-4.419,0-8-3.581-8-8c0-4.418,3.581-8,8-8h8c4.419,0,8,3.582,8,8S100.419,348,96,348z
		 M56,348h-8c-4.418,0-8-3.581-8-8c0-4.418,3.582-8,8-8h8c4.418,0,8,3.582,8,8S60.418,348,56,348z"/>
	<path style="fill:#4898DA;" d="M76,383h-8c-4.418,0-8-3.581-8-8c0-4.418,3.582-8,8-8h8c4.419,0,8,3.582,8,8S80.419,383,76,383z
		 M36,383h-8c-4.419,0-8-3.581-8-8c0-4.418,3.581-8,8-8h8c4.418,0,8,3.582,8,8S40.418,383,36,383z"/>
	<path style="fill:#4898DA;" d="M56,418h-8c-4.418,0-8-3.581-8-8c0-4.418,3.582-8,8-8h8c4.418,0,8,3.582,8,8S60.418,418,56,418z
		 M16,418H8c-4.418,0-8-3.581-8-8c0-4.418,3.582-8,8-8h8c4.419,0,8,3.582,8,8S20.419,418,16,418z"/>
	<path style="fill:#37495E;" d="M318.837,299C348.4,249.289,367,195.859,367,153c0-80.081-64.919-140-145-140S77,72.919,77,153
		c0,42.859,18.6,96.289,48.163,146H318.837z"/>
	<rect x="179.5" y="384" style="fill:#37495E;" width="85" height="45"/>
	<rect x="198.5" y="355" style="fill:#F4A026;" width="47" height="34"/>
	<path style="fill:#EFEFEF;" d="M284.777,299C303.942,249.289,316,195.859,316,153c0-80.081-42.085-140-94-140s-94,59.919-94,140
		c0,42.859,12.058,96.289,31.223,146H284.777z"/>
	<path style="fill:#37495E;" d="M243.371,299C249.895,249.289,254,195.859,254,153c0-80.081-14.327-140-32-140s-32,59.919-32,140
		c0,42.859,4.105,96.289,10.629,146H243.371z"/>
</g>
</svg>