<?xml version="1.0" encoding="iso-8859-1"?>
<!-- Uploaded to: SVG Repo, www.svgrepo.com, Generator: SVG Repo Mixer Tools -->
<svg height="800px" width="800px" version="1.1" id="Layer_1" xmlns="http://www.w3.org/2000/svg" xmlns:xlink="http://www.w3.org/1999/xlink" 
	 viewBox="0 0 512 512" xml:space="preserve">
<path style="fill:#FFD3AE;" d="M383.937,253.822c-1.278,26.36-10.521,50.614-25.382,70.424
	c-23.333,31.137-60.536,51.281-102.436,51.281c-35.339,0-67.339-14.331-90.499-37.491c-4.34-4.34-8.368-8.99-12.064-13.928
	c-15.425-20.616-24.76-46.044-25.37-73.636l0.426-0.012c0.357,21.664,18.015,39.057,39.69,39.057H209.5
	c16.495,0,29.871-13.376,29.871-29.871v-5.318c0-9.186,7.517-17.209,16.702-17.232c4.65-0.012,8.84,1.865,11.879,4.904
	c3.039,3.016,4.904,7.217,4.904,11.833v5.825c0,16.484,13.364,29.86,29.859,29.86h41.209c21.675,0,39.345-17.382,39.69-39.057h0.334
	L383.937,253.822z"/>
<path style="fill:#DBA983;" d="M127.714,207.594v34.372c0,2.187,0.058,4.363,0.15,6.527c2.083,43.661,24.875,81.901,58.752,105.107
	c0.288,0.207,0.599,0.414,0.886,0.61c21.537,14.492,47.483,22.964,75.409,22.964c9.879,0,19.502-1.08,28.776-3.092
	c-16.945-3.675-32.712-10.507-46.63-19.873c-0.288-0.196-0.599-0.403-0.886-0.61c-33.877-23.206-56.669-61.446-58.752-105.107
	c-0.092-2.164-0.15-4.34-0.15-6.527v-34.372"/>
<polygon style="fill:#F7B239;" points="297.144,89.698 276.574,109.75 281.432,138.068 256.004,124.703 230.576,138.068 
	235.434,109.75 214.852,89.698 243.284,85.577 256.004,59.816 268.712,85.577 "/>
<g>
	<path style="fill:#2BA5F7;" d="M256.119,375.528l-48.162,54.861l-54.539-97.187v-8.944l0.138-0.15
		c3.695,4.938,7.724,9.589,12.064,13.928C188.78,361.197,220.78,375.528,256.119,375.528z"/>
	<path style="fill:#2BA5F7;" d="M358.579,324.258v9.358l-54.297,96.773l-48.162-54.861c41.9,0,79.104-20.144,102.436-51.281
		L358.579,324.258z"/>
	<path style="fill:#2BA5F7;" d="M358.579,333.616v-9.358h31.045c38.688,0,70.056,31.367,70.056,70.056v109.055H358.578
		L358.579,333.616L358.579,333.616z"/>
	<path style="fill:#2BA5F7;" d="M153.418,333.202v170.167H52.328V394.314c0-38.688,31.356-70.056,70.056-70.056h31.034V333.202z"/>
</g>
<path style="fill:#2197D8;" d="M153.418,324.885v-0.627h-31.034c-38.7,0-70.056,31.367-70.056,70.056v109.055h40.288V394.314
	C92.617,358.764,119.098,329.416,153.418,324.885z"/>
<g>
	<polygon style="fill:#F7B239;" points="256.119,375.528 256.119,503.369 153.418,503.369 153.418,333.202 207.957,430.389 	"/>
	<polygon style="fill:#F7B239;" points="358.579,333.616 358.579,503.369 256.119,503.369 256.119,375.528 304.281,430.389 	"/>
</g>
<g>
	<path style="fill:#F95428;" d="M174.932,180.117h162.144c-12.697,14.089-29.031,24.852-47.517,30.815
		c-10.567,3.419-21.848,5.261-33.555,5.261c-11.707,0-22.987-1.842-33.555-5.261C203.951,204.969,187.629,194.207,174.932,180.117z"
		/>
	<path style="fill:#F95428;" d="M383.949,250.461l0.138-29.779c0.012-3.419-0.391-6.734-1.174-9.899
		c-4.351-17.6-20.259-30.665-39.206-30.665h-6.63H174.932h-6.4c-18.959,0-34.867,13.065-39.206,30.665
		c-0.783,3.108-1.186,6.366-1.186,9.715v26.752v0.299v23.908c-24.277,0-28.121-38.251-28.121-70.067
		c0-14.769,0.829-28.156,0.829-35.684c0-85.987,69.158-156.837,155.157-157.068c42.994,0.115,81.786,17.888,109.826,46.378
		s45.33,67.696,45.33,110.69c0,23.736,8.242,105.752-27.304,105.752l0.081-17.635L383.949,250.461z M276.574,109.75l20.57-20.052
		l-28.432-4.121l-12.708-25.762l-12.72,25.762l-28.432,4.121l20.582,20.052l-4.858,28.317l25.428-13.364l25.428,13.364
		L276.574,109.75z"/>
</g>
<path style="fill:#E54728;" d="M159.553,165.705c0-75.945,53.951-140.069,125.801-154.174c-9.5-1.865-19.309-2.867-29.351-2.894
	c-85.999,0.23-155.157,71.08-155.157,157.068c0,7.528-0.829,20.915-0.829,35.684c0,31.816,3.845,70.067,28.121,70.067v-23.908
	v-0.299v-26.752c0-3.35,0.403-6.607,1.186-9.715c3.598-14.592,15.152-26.06,29.801-29.554
	C159.337,174.926,159.553,169.549,159.553,165.705z"/>
<g>
	<path style="fill:#DBA983;" d="M222.449,210.932h-6.745h-26.683h-59.074l-0.622-0.15c4.34-17.6,20.248-30.665,39.206-30.665h6.4
		C187.629,194.207,203.951,204.969,222.449,210.932z"/>
	<path style="fill:#DBA983;" d="M382.913,210.782l-0.633,0.15h-71.667h-14.308h-6.745c18.487-5.963,34.821-16.725,47.517-30.815
		h6.63C362.653,180.117,378.562,193.182,382.913,210.782z"/>
</g>
<path style="fill:#A2D6F4;" d="M128.612,250.461l-0.426,0.012c-0.035-0.967-0.046-1.945-0.046-2.924v-0.299v-26.752
	c0-3.35,0.403-6.607,1.186-9.715l0.622,0.15h59.074h26.682h6.745c10.567,3.419,21.848,5.261,33.555,5.261
	c11.707,0,22.987-1.842,33.555-5.261h6.745h14.308h71.667l0.633-0.15c0.783,3.166,1.186,6.481,1.174,9.899l-0.138,29.779h-0.334
	c-0.345,21.675-18.015,39.057-39.69,39.057h-41.209c-16.495,0-29.86-13.376-29.86-29.86v-5.825c0-4.616-1.865-8.817-4.904-11.833
	c-3.039-3.039-7.229-4.915-11.879-4.904c-9.186,0.023-16.702,8.046-16.702,17.232v5.318c0,16.495-13.376,29.871-29.871,29.871
	h-41.198C146.627,289.518,128.969,272.125,128.612,250.461z"/>
<g>
	<path style="fill:#333333;" d="M389.618,315.628h-15.102c6.409-11.105,11.293-23.194,14.384-35.974
		c5.86-1.019,11.131-3.827,15.44-8.289c16.931-17.528,17.011-57.625,15.756-93.832c-0.165-4.744-0.306-8.839-0.306-11.823
		c0-91.121-73.465-165.459-163.815-165.71C165.673,0.252,92.207,74.589,92.207,165.71c0,2.984-0.142,7.079-0.306,11.823
		c-1.254,36.208-1.174,76.304,15.757,93.833c4.368,4.523,9.724,7.349,15.681,8.331c3.091,12.766,7.971,24.84,14.374,35.933h-15.331
		c-43.391,0-78.691,35.301-78.691,78.691v109.046c0,4.768,3.865,8.633,8.633,8.633h407.352c4.769,0,8.633-3.865,8.633-8.633V394.32
		C468.309,350.929,433.009,315.628,389.618,315.628z M340.829,188.749h2.873c8.509,0,16.5,3.321,22.502,9.35
		c1.304,1.31,2.47,2.717,3.512,4.198h-44.452C330.807,198.271,336.018,193.74,340.829,188.749z M256.004,207.558
		c-21.14,0-41.604-6.698-58.529-18.809h117.051C297.597,200.86,277.136,207.558,256.004,207.558z M168.528,188.749h2.65
		c4.808,4.992,10.018,9.522,15.561,13.548h-44.202C148.285,194.113,157.789,188.749,168.528,188.749z M136.801,219.564h84.467
		c11.151,3.446,22.85,5.261,34.736,5.261c11.88,0,23.578-1.815,34.728-5.261h84.699c0.01,0.359-0.113,30.759-0.113,30.759
		l-0.045-0.001c-0.274,16.85-14.247,30.558-31.148,30.558h-41.307c-11.74,0-21.292-9.521-21.292-21.225v-5.821
		c0-6.8-2.65-13.178-7.45-17.949c-4.8-4.79-11.177-7.426-17.962-7.426c-0.022,0-0.043,0-0.066,0
		c-13.741,0.033-25.35,11.882-25.35,25.872v5.312c0,11.709-9.556,21.236-21.303,21.236h-41.292
		c-16.903,0-30.875-13.71-31.148-30.561L136.801,219.564z M168.105,298.145h41.292c21.268,0,38.57-17.272,38.57-38.502v-5.312
		c0-4.574,3.797-8.595,8.127-8.606c0.007,0,0.014,0,0.021,0c2.181,0,4.228,0.845,5.78,2.393c1.526,1.518,2.368,3.548,2.368,5.715
		v5.821c0,21.224,17.296,38.492,38.558,38.492h41.307c8.104,0,15.772-2.035,22.518-5.613
		c-17.796,43.571-60.632,74.358-110.529,74.358s-92.731-30.786-110.529-74.358C152.333,296.11,160,298.145,168.105,298.145z
		 M334.057,359.673l-31.339,55.856l-28.582-32.562C296.194,380.047,316.604,371.842,334.057,359.673z M238.094,382.966
		l-28.583,32.562l-31.338-55.857C195.625,371.842,216.036,380.047,238.094,382.966z M162.052,366.228l38.37,68.389
		c1.371,2.444,3.842,4.069,6.628,4.362c0.302,0.032,0.602,0.047,0.902,0.047c2.469,0,4.839-1.06,6.488-2.938l33.042-37.642v96.286
		h-85.43V366.228z M264.749,398.446l33.041,37.642c1.848,2.105,4.602,3.183,7.39,2.89c2.786-0.292,5.256-1.919,6.628-4.362
		l38.141-67.98v128.094h-85.2L264.749,398.446L264.749,398.446z M119.511,258.752c-12.647-14.424-11.101-59.025-10.353-80.622
		c0.169-4.904,0.317-9.139,0.317-12.42c0-81.627,65.742-148.219,146.5-148.444c80.807,0.224,146.549,66.817,146.549,148.444
		c0,3.282,0.147,7.518,0.317,12.422c0.746,21.564,2.288,66.06-10.294,80.555v-37.963c0.06-13.135-4.839-25.496-14.107-34.805
		c-9.266-9.309-21.604-14.435-34.739-14.435H168.528c-27.028,0-49.017,21.989-49.017,49.017
		C119.511,220.501,119.511,258.752,119.511,258.752z M60.957,394.32c0-33.87,27.555-61.425,61.425-61.425h22.404v161.838H60.957
		V394.32z M451.043,494.732h-83.829V332.895h22.404c33.87,0,61.425,27.555,61.425,61.425V494.732z"/>
	<path style="fill:#333333;" d="M226.153,112.769l-4.089,23.839c-0.555,3.239,0.776,6.512,3.435,8.443
		c2.658,1.932,6.183,2.187,9.091,0.657l21.409-11.255l21.41,11.255c1.264,0.664,2.643,0.992,4.016,0.992
		c1.791,0,3.572-0.556,5.075-1.648c2.659-1.932,3.991-5.205,3.434-8.443l-4.089-23.839l17.322-16.884
		c2.353-2.294,3.199-5.724,2.184-8.85c-1.015-3.125-3.717-5.403-6.97-5.875l-23.936-3.477l-10.705-21.691
		c-1.455-2.947-4.456-4.813-7.742-4.813s-6.287,1.866-7.742,4.813l-10.705,21.691l-23.936,3.477
		c-3.252,0.473-5.953,2.75-6.969,5.875s-0.168,6.557,2.184,8.85L226.153,112.769z M244.528,94.115
		c2.812-0.409,5.242-2.174,6.5-4.723l4.972-10.074l4.972,10.074c1.258,2.549,3.688,4.314,6.5,4.723l11.116,1.615l-8.044,7.841
		c-2.035,1.983-2.963,4.842-2.482,7.641l1.898,11.072l-9.944-5.228c-1.258-0.661-2.637-0.992-4.017-0.992
		c-1.38,0-2.759,0.33-4.017,0.992l-9.943,5.227l1.899-11.072c0.48-2.801-0.448-5.659-2.483-7.641l-8.044-7.841L244.528,94.115z"/>
	<path style="fill:#333333;" d="M204.896,261.363c4.768,0,8.633-3.865,8.633-8.633v-13.833c0-4.768-3.865-8.633-8.633-8.633
		s-8.633,3.865-8.633,8.633v13.833C196.263,257.498,200.128,261.363,204.896,261.363z"/>
	<path style="fill:#333333;" d="M307.333,261.363c4.769,0,8.633-3.865,8.633-8.633v-13.833c0-4.768-3.864-8.633-8.633-8.633
		s-8.633,3.865-8.633,8.633v13.833C298.699,257.498,302.564,261.363,307.333,261.363z"/>
	<path style="fill:#333333;" d="M256.115,340.538c10.081,0,19.562-3.93,26.697-11.066c3.372-3.372,3.372-8.838-0.001-12.21
		c-3.37-3.372-8.837-3.37-12.209,0c-3.873,3.875-9.019,6.008-14.488,6.008c-5.468,0-10.613-2.134-14.488-6.008
		c-3.372-3.372-8.838-3.372-12.209,0c-3.372,3.372-3.372,8.837,0,12.209C236.553,336.608,246.034,340.538,256.115,340.538z"/>
</g>
</svg>