<?xml version="1.0" encoding="iso-8859-1"?>
<!-- Uploaded to: SVG Repo, www.svgrepo.com, Generator: SVG Repo Mixer Tools -->
<svg version="1.1" id="Layer_1" xmlns="http://www.w3.org/2000/svg" xmlns:xlink="http://www.w3.org/1999/xlink" 
	 viewBox="0 0 512.001 512.001" xml:space="preserve">
<path style="fill:#ACAAB1;" d="M292.313,352.875L33.452,94.015C7.49,68.053,7.49,25.962,33.452,0l0,0L339.32,305.868"/>
<path style="fill:#D7D5D9;" d="M219.688,352.875l36.312-36.312l47.007-47.007L478.548,94.015c25.962-25.962,25.962-68.053,0-94.015
	l0,0L255.999,222.549l-47.007,47.007l-36.312,36.312L219.688,352.875z"/>
<path style="opacity:0.11;fill:#3E3B43;enable-background:new    ;" d="M219.688,352.875l36.312-36.312l47.007-47.007
	L478.549,94.015c25.962-25.962,25.962-68.053,0-94.015l0,0l-4.516,4.516c8.358,23.436,3.164,50.622-15.599,69.385L282.893,249.441
	l-47.007,47.007l-36.312,36.312L219.688,352.875z"/>
<path style="fill:#FF5023;" d="M199.844,325.712c-42.518-42.518-111.455-42.518-153.973,0s-42.518,111.455,0,153.973
	s111.455,42.518,153.973,0S242.362,368.23,199.844,325.712z M166.225,446.068c-23.952,23.952-62.785,23.952-86.737,0
	c-23.952-23.952-23.952-62.785,0-86.737c23.952-23.952,62.785-23.952,86.737,0C190.177,383.283,190.177,422.115,166.225,446.068z"/>
<circle style="fill:#ACAAB1;" cx="254.268" cy="267.584" r="10.937"/>
<path style="fill:#FF5023;" d="M466.131,325.712c-42.518-42.518-111.455-42.518-153.973,0s-42.518,111.455,0,153.973
	s111.455,42.518,153.973,0S508.649,368.23,466.131,325.712z M432.512,446.068c-23.952,23.952-62.785,23.952-86.737,0
	c-23.952-23.952-23.952-62.785,0-86.737c23.952-23.952,62.785-23.952,86.737,0C456.464,383.283,456.464,422.115,432.512,446.068z"/>
<g style="opacity:0.23;">
	<path style="fill:#891C00;" d="M466.131,326.138c-0.45-0.45-0.907-0.888-1.362-1.328c28.18,42.295,23.617,99.954-13.697,137.269
		c-42.068,42.068-109.996,42.507-152.611,1.328c3.931,5.899,8.493,11.501,13.697,16.706c42.518,42.518,111.455,42.518,153.973,0
		C508.649,437.593,508.649,368.656,466.131,326.138z"/>
</g>
<g style="opacity:0.23;">
	<path style="fill:#891C00;" d="M199.844,326.138c-0.45-0.45-0.907-0.888-1.362-1.328c28.18,42.295,23.617,99.954-13.697,137.269
		c-42.068,42.068-109.996,42.507-152.611,1.328c3.931,5.899,8.493,11.501,13.697,16.706c42.518,42.518,111.455,42.518,153.973,0
		C242.362,437.593,242.362,368.656,199.844,326.138z"/>
</g>
<rect x="254.625" y="289.872" transform="matrix(-0.7071 0.7071 -0.7071 -0.7071 704.2701 310.7429)" style="opacity:0.21;fill:#3E3B43;enable-background:new    ;" width="66.306" height="22.717"/>
</svg>